<svg width="38" height="38" fill="none" xmlns="http://www.w3.org/2000/svg"><rect x="-.008" y=".194" width="37.024" height="37.024" rx="10.68" fill="#F6F6F6"/><path d="M18.466 14.67a3.988 3.988 0 00-3.995 3.994 3.988 3.988 0 003.995 3.995 3.988 3.988 0 003.994-3.995 3.988 3.988 0 00-3.994-3.994zm0 6.591a2.602 2.602 0 01-2.597-2.597 2.6 2.6 0 012.597-2.597 2.6 2.6 0 012.597 2.597 2.602 2.602 0 01-2.597 2.597zm5.09-6.755a.93.93 0 01-.932.932.932.932 0 11.932-.932zm2.645.946c-.059-1.248-.344-2.354-1.259-3.265-.91-.91-2.016-1.196-3.264-1.258-1.286-.073-5.142-.073-6.428 0-1.245.059-2.35.344-3.265 1.255-.914.91-1.195 2.016-1.258 3.264-.073 1.287-.073 5.142 0 6.428.059 1.249.344 2.354 1.258 3.265.915.91 2.017 1.196 3.265 1.259 1.286.073 5.142.073 6.428 0 1.248-.06 2.354-.345 3.264-1.259.911-.91 1.197-2.016 1.26-3.264.072-1.287.072-5.139 0-6.425zm-1.662 7.805a2.63 2.63 0 01-1.48 1.48c-1.026.407-3.46.314-4.593.314-1.134 0-3.57.09-4.593-.313a2.63 2.63 0 01-1.48-1.481c-.408-1.026-.314-3.46-.314-4.593s-.09-3.57.313-4.592a2.63 2.63 0 011.481-1.481c1.026-.407 3.46-.313 4.593-.313s3.57-.09 4.592.313a2.63 2.63 0 011.481 1.48c.407 1.026.313 3.46.313 4.593s.094 3.57-.313 4.593z" fill="#2A2F2F"/></svg>