<svg width="22" height="33" fill="none" xmlns="http://www.w3.org/2000/svg"><path d="M18.933.931H3.03A2.358 2.358 0 00.671 3.29V30.2a2.358 2.358 0 002.358 2.36h15.904a2.358 2.358 0 002.36-2.36V3.29c0-1.28-1.08-2.359-2.36-2.359z" fill="#fff"/><path d="M20.147 4.728H1.794V26.92h18.353V4.728z" fill="#404040"/><path d="M14.733 2.346H7.208a.57.57 0 00-.562.562c0 .314.247.561.562.561h7.525a.57.57 0 00.561-.561.57.57 0 00-.561-.562zM9.185 29.594c0-.988.808-1.82 1.797-1.82.988 0 1.82.81 1.82 1.82 0 .989-.81 1.797-1.82 1.797-.989.023-1.797-.786-1.797-1.797z" fill="#6639A6"/></svg>