<svg width="38" height="38" fill="none" xmlns="http://www.w3.org/2000/svg"><rect x=".984" y=".194" width="37.024" height="37.024" rx="10.68" fill="#F6F6F6"/><path d="M28.346 15.189c.012.158.012.316.012.474 0 4.823-3.671 10.38-10.38 10.38a10.31 10.31 0 01-5.602-1.638c.294.034.576.045.88.045a7.306 7.306 0 004.53-1.558 3.654 3.654 0 01-3.41-2.53c.225.034.45.056.688.056.328 0 .655-.045.96-.124a3.648 3.648 0 01-2.925-3.58v-.046c.485.271 1.05.44 1.649.463a3.645 3.645 0 01-1.627-3.038c0-.677.181-1.299.497-1.84a10.37 10.37 0 007.522 3.817 4.116 4.116 0 01-.09-.836 3.646 3.646 0 013.648-3.648c1.05 0 2 .44 2.666 1.152a7.182 7.182 0 002.315-.881 3.638 3.638 0 01-1.604 2.01 7.313 7.313 0 002.1-.564 7.842 7.842 0 01-1.829 1.886z" fill="#2A2F2F"/></svg>