<svg width="20" height="20" fill="none" xmlns="http://www.w3.org/2000/svg"><path d="M16.636 17.697a.75.75 0 001.061-1.06l-1.06 1.06zm-2.72-8.864a5.083 5.083 0 01-5.083 5.084v1.5a6.583 6.583 0 006.584-6.584h-1.5zm-5.083 5.084A5.083 5.083 0 013.75 8.833h-1.5a6.583 6.583 0 006.583 6.584v-1.5zM3.75 8.833A5.083 5.083 0 018.833 3.75v-1.5A6.583 6.583 0 002.25 8.833h1.5zM8.833 3.75a5.083 5.083 0 015.084 5.083h1.5A6.583 6.583 0 008.833 2.25v1.5zm3.637 9.78l4.166 4.167 1.061-1.06-4.167-4.167-1.06 1.06z" fill="#807D7E"/></svg>