<svg width="44" height="44" fill="none" xmlns="http://www.w3.org/2000/svg"><rect width="44" height="44" rx="8" fill="#F6F6F6"/><path clip-rule="evenodd" d="M21.995 16.93c-1.5-1.747-4-2.217-5.879-.617-1.879 1.6-2.143 4.275-.668 6.168 1.227 1.573 4.94 4.892 6.156 5.966.136.12.204.18.284.204a.39.39 0 00.214 0c.08-.023.148-.084.284-.204 1.216-1.074 4.929-4.392 6.156-5.966 1.475-1.893 1.243-4.585-.668-6.168-1.911-1.584-4.38-1.13-5.88.617z" stroke="#807D7E" stroke-width="1.5" stroke-linecap="round" stroke-linejoin="round"/></svg>