<svg width="93" height="45" fill="none" xmlns="http://www.w3.org/2000/svg"><path d="M3.892 27.39c.266-.05.566-.082.898-.082.05-1.747 1.048-4.64 2.113-7.635-.998-.15-1.846-.15-2.362.2-.366-1.447 1.015-1.73 2.91-1.697.982-2.777 1.93-5.488 2.13-7.301-1.58-.1-2.978.066-3.86 1.064-.282.3-1.047-3.476 2.413-4.108 2.81-.516 8.798 1.78 10.678-.865.282-.383.515 3.077-1.364 4.008-1.198.582-2.778.516-4.424.316-.233 1.597-1.098 4.242-1.996 7.12 1.962.132 3.692.116 4.058-.816.582 3.476-1.896 3.36-4.657 2.794-.765 2.562-1.48 5.156-1.747 7.269 2.412.283 4.824.382 5.888-1.131.283-.383.516 3.077-1.363 3.992-3.294 1.63-9.365-1.697-11.726.964-.283.3-1.048-3.476 2.411-4.091zm14.022-10.228c-.017-.067 3.675-.4 3.609 1.73-.05 1.363-3.244 8.349-2.578 10.594 1.63-2.079 5.97-12.324 5.97-12.324-.016-.067 3.677-.4 3.594 1.73-.05 1.38-2.845 6.952-2.562 10.694 1.28-1.347 2.828-5.056 3.11-5.755.034-.066.1-.1.167-.1.133 0 .216.117.183.233-.4 1.231-2.063 6.304-2.928 6.82-.998.615-3.709-.416-3.958-1.547-.483-2.096 1.547-7.085 2.229-10.096-1.331 3.476-4.408 11.277-5.473 11.743-.98.415-3.642-.433-3.858-1.764-.4-2.411 3.01-10.029 2.495-11.958zm7.401 21.755c-.682-4.191 5.672-18.296 5.006-21.789-.016-.066 3.826 0 3.593 2.113-.216 2.012-3.077 9.946-4.424 15.85 2.412-8.948 7.052-17.414 7.767-17.83.649-.382 2.645.183 3.46 1.614 1.098 1.93-1.23 11.244-5.09 12.025-.865.183-2.91-1.098-3.326-1.613-1.43 3.676-2.761 7.784-3.393 11.576-.083.4-3.31-.216-3.593-1.946zM37.607 18.31c-.217-.083-2.778 4.558-5.123 10.495 3.077 1.73 5.904-10.179 5.123-10.495zm2.777 10.678c-.682-4.208 5.755-18.794 5.323-21.905-.017-.066 3.51.117 3.276 2.23-.233 2.178-3.609 11.36-4.74 17.347 1.613-3.992 4.424-9.697 6.038-9.547.931.083 2.81.965 2.977 1.53.466 1.563-2.794 8.699-2.86 11.06 1.296-1.247 2.926-5.155 3.21-5.87a.18.18 0 01.166-.1c.133 0 .216.116.182.232-.399 1.231-2.228 6.87-2.96 6.97-1.447.2-3.892-.849-4.092-2.163-.25-1.78 2.595-7.551 2.878-10.345-.832-.133-5.838 9.88-5.805 12.458.1.465-3.293-.134-3.593-1.896zm13.024-.232c-.982-2.778 1.247-9.73 3.758-11.344.865-.565 3.21-.416 3.96.083.648.416.232.815.232.815-2.711-1.264-5.905 10.512-4.657 11.66 1.447 1.33 4.89-9.564 2.81-9.996 0 0 .965-1.364 1.797-1.264 2.878.382.699 10.162-3.327 12.058-1.097.516-3.709.416-4.573-2.012zm8.715.399c-.432-2.645 2.844-10.096 2.312-12.026-.017-.066 3.875-.366 3.809 1.764-.05 1.197-2.162 5.555-2.528 9.13 1.264-3.924 4.158-11.077 5.954-10.91.932.083 2.562.848 2.728 1.397.216.732-2.013 4.225-1.414 6.387-4.956-.216-1.746-5.822-1.813-6.47-.831-.133-5.289 9.78-5.272 12.374.016.1-.1.167-.183.15-.715-.083-3.377-.466-3.593-1.796zm17.231-12.292c-4.757-.632-1.73-3.31-1.929-5.073 5.156.832 1.514 2.612 1.93 5.073zm-6.386 12.292c-.466-2.545 2.96-10.096 2.444-12.026-.016-.066 3.843-.366 3.776 1.764-.05 1.38-2.81 6.869-2.578 10.611 1.264-1.414 2.761-4.99 3.044-5.672.017-.066.083-.1.166-.1.117 0 .2.117.167.233-.383 1.231-2.196 6.554-2.994 6.936-.815.366-3.81-.499-4.025-1.746zm9.946 1.73c-.599.415-3.293-.316-3.909-1.43-.798-1.431 1.198-8.683 3.027-11.028 1.43-1.813 4.524-1.364 5.256-.932.183.1.25.2.15.483-.117.316-.35.25-.715.15-1.863-.483-4.657 9.73-4.474 11.809l5.937-12.641c.2-.55 3.726.366 3.393 1.064-.332.699-2.76 8.982-2.827 11.344 1.297-1.248 2.944-5.156 3.227-5.872.033-.066.1-.1.166-.1.116 0 .216.117.166.233-.382 1.231-2.212 6.87-2.944 6.97-1.463.2-3.908-.849-4.091-2.163-.167-1.114.748-4.557 1.596-7.385-1.463 3.793-3.626 9.265-3.958 9.498z" fill="#3C4242"/><path d="M1 33.626h22.403" stroke="#333" stroke-width=".42" stroke-miterlimit="10" stroke-linecap="round" stroke-linejoin="round"/><path d="M32.986 33.626h59.05" stroke="#3C4242" stroke-width=".42" stroke-miterlimit="10" stroke-linecap="round" stroke-linejoin="round"/><path d="M40.95 41.262c-.163 0-.352-.065-.568-.193-.215-.13-.444-.3-.685-.513a10.331 10.331 0 01-.713-.694 12.778 12.778 0 01-1.142-1.407l-1.08 2.331a.459.459 0 01-.244.241 1.155 1.155 0 01-.362.086 5 5 0 01-.384.014 5.88 5.88 0 00.295-.475 48.967 48.967 0 00.84-1.567c.187-.361.407-.794.664-1.296.256-.502.558-1.092.908-1.77l.089-.167a.437.437 0 00.056-.197.161.161 0 00-.056-.13c-.037-.032-.108-.048-.212-.048-.178 0-.35.048-.517.144a1.74 1.74 0 00-.446.368 1.98 1.98 0 00-.306.46c-.075.159-.112.3-.112.424a.56.56 0 00.056.252c-.245 0-.418-.04-.518-.122a.374.374 0 01-.15-.301c0-.168.073-.336.222-.505a2.41 2.41 0 01.574-.464c.234-.14.48-.253.735-.338.256-.083.488-.126.696-.126.2 0 .336.037.406.112a.35.35 0 01.106.245.51.51 0 01-.027.163c-.019.055-.04.107-.062.156l-.935 2.02c.103-.1.24-.19.406-.275.167-.084.351-.18.551-.29.335-.178.693-.386 1.075-.623.383-.238.748-.488 1.097-.75a7.04 7.04 0 00.869-.758c.037.03.063.082.078.156a.97.97 0 01.022.17c0 .155-.094.323-.284.506a4.89 4.89 0 01-.74.567 12.87 12.87 0 01-1.003.58 32.57 32.57 0 01-2.027.976c.223.252.44.492.652.72a9.042 9.042 0 001.565 1.337c.333.227.738.472 1.213.735a.643.643 0 01-.245.17.85.85 0 01-.357.076zm5.96-.282c-.454 0-.79-.092-1.009-.275-.219-.183-.328-.404-.328-.661a3.57 3.57 0 01-1.103.66 3.515 3.515 0 01-1.258.238c-.453 0-.793-.083-1.02-.249-.226-.166-.339-.37-.339-.612 0-.223.084-.458.25-.705.168-.248.39-.48.669-.698.278-.218.584-.395.919-.531.334-.136.664-.205.991-.205.17 0 .33.03.474.09.145.059.217.18.217.364 0 .188-.084.364-.25.53a2.35 2.35 0 01-.657.442 5.214 5.214 0 01-1.854.468 1.29 1.29 0 00-.034.141.61.61 0 00.067.42c.05.096.14.175.267.237.126.062.304.093.534.093.394 0 .784-.093 1.17-.278a4.015 4.015 0 001.013-.687c.067-.203.186-.406.357-.609.17-.203.377-.387.618-.553.241-.166.503-.3.785-.401a2.52 2.52 0 01.858-.152c.17 0 .329.03.473.089.145.06.218.18.218.364 0 .253-.129.474-.384.664-.256.191-.585.343-.986.457a6.042 6.042 0 01-1.236.216c-.014.05-.026.096-.034.14a.717.717 0 00.06.43.57.57 0 00.257.257c.123.067.299.1.53.1.319 0 .637-.063.957-.19.32-.125.616-.291.891-.497a3.61 3.61 0 00.69-.664l.134.066a3.07 3.07 0 01-.774.784 3.97 3.97 0 01-1.025.527 3.38 3.38 0 01-1.109.19zm-4.244-1.285a6.34 6.34 0 001.409-.505c.234-.12.427-.25.579-.393.152-.144.228-.295.228-.454a.174.174 0 00-.044-.126c-.03-.03-.093-.044-.19-.044-.178 0-.367.046-.568.137-.2.092-.393.212-.58.36a3.478 3.478 0 00-.5.49c-.149.178-.26.356-.334.535zm3.72 0c.2-.045.42-.104.658-.179.237-.074.464-.162.68-.263.214-.102.393-.218.534-.349.14-.131.211-.276.211-.434 0-.054-.018-.1-.056-.137-.037-.037-.104-.056-.2-.056-.238 0-.477.07-.718.209-.242.138-.46.315-.658.53a2.48 2.48 0 00-.451.678z" fill="#3C4242"/><path d="M48.748 42.695a.284.284 0 01-.173-.063.524.524 0 01-.173-.22 8.82 8.82 0 01.307-.649c.1-.19.2-.386.3-.587.1-.2.2-.435.296-.705.096-.27.196-.605.3-1.006.105-.401.209-.899.313-1.493.007-.044.022-.077.044-.096.022-.02.078-.03.167-.03.193 0 .33.036.412.107.082.072.123.15.123.234 0 .069-.023.193-.067.37a8.6 8.6 0 01-.19.632c.127-.163.285-.33.474-.498a2.65 2.65 0 01.651-.423c.245-.114.513-.17.802-.17.327 0 .596.078.807.233.212.156.318.36.318.613 0 .193-.066.397-.195.612a2.39 2.39 0 01-.546.61 2.98 2.98 0 01-1.887.641 1.98 1.98 0 01-.468-.044c-.119-.03-.178-.06-.178-.09 0-.02.028-.03.084-.033a5.28 5.28 0 01.195-.004c.297 0 .58-.048.852-.145.27-.097.514-.224.73-.383.214-.158.383-.334.506-.526a1.06 1.06 0 00.184-.572.583.583 0 00-.15-.405c-.1-.111-.263-.166-.485-.166-.193 0-.384.04-.574.122a2.56 2.56 0 00-.535.312 3.639 3.639 0 00-.445.393 2.31 2.31 0 00-.295.367c-.134.371-.268.729-.401 1.073-.134.344-.262.656-.384.936-.123.28-.234.508-.334.686-.1.179-.184.288-.25.327a.222.222 0 01-.135.04zm8.754-1.887c-.29 0-.505-.06-.646-.182a.562.562 0 01-.211-.441c0-.114.031-.258.094-.431s.147-.355.25-.546c.104-.19.225-.37.363-.538a2.12 2.12 0 01.44-.413.814.814 0 01.457-.16.35.35 0 01.172.041.132.132 0 01.073.122c0 .06-.058.156-.173.29a22.3 22.3 0 01-.407.46 3.615 3.615 0 00-.406.546c-.115.19-.173.372-.173.546 0 .178.045.297.134.356.09.06.227.09.413.09.252 0 .521-.085.807-.254.285-.168.588-.462.908-.883l.1.075a2.273 2.273 0 01-.93.98 2.536 2.536 0 01-1.265.342zm1.336-3.4a.807.807 0 01-.317-.06c-.093-.04-.14-.1-.14-.185 0-.104.091-.195.273-.271a1.38 1.38 0 01.54-.116c.112 0 .2.018.267.053.067.034.1.094.1.178 0 .093-.076.184-.228.271a.978.978 0 01-.495.13z" fill="#3C4242"/><path d="M60.33 40.957c-.32 0-.565-.062-.735-.186-.17-.123-.256-.306-.256-.549 0-.217.062-.486.184-.806a7.76 7.76 0 01.462-.983l-.211-.027a1.496 1.496 0 01-.19-.033v-.133c.06.004.13.01.212.014l.278.015a10.3 10.3 0 01.501-.776 7.76 7.76 0 01.53-.668c.174-.195.341-.352.5-.468.16-.116.296-.174.407-.174a.32.32 0 01.161.04.132.132 0 01.073.122c0 .085-.078.222-.234.413-.156.19-.349.417-.579.679-.23.263-.453.547-.668.854h.412c.245 0 .503-.002.774-.008.27-.004.544-.017.819-.036v.133c-.409.03-.775.052-1.097.067-.323.015-.611.022-.864.022h-.167c-.17.263-.316.533-.434.81-.12.277-.178.547-.178.81 0 .212.048.364.144.456.096.091.256.137.48.137.386 0 .764-.113 1.135-.342.371-.227.698-.536.98-.927l.145.074a3.246 3.246 0 01-.674.75 3.31 3.31 0 01-.896.527 2.739 2.739 0 01-1.014.193zm6.315.074c-.356 0-.653-.079-.89-.237-.238-.158-.357-.396-.357-.713 0-.247.072-.489.217-.725.145-.235.336-.446.574-.634.238-.188.501-.338.79-.45.29-.11.576-.166.859-.166.304 0 .512.06.623.178a.54.54 0 01.167.371.54.54 0 01-.15.379.524.524 0 01-.407.163.49.49 0 01-.323-.11.59.59 0 00.29-.242.628.628 0 00.122-.346.184.184 0 00-.05-.137c-.034-.032-.098-.049-.195-.049-.2 0-.406.06-.618.179a2.839 2.839 0 00-1.035 1.054 1.219 1.219 0 00-.174.586c0 .154.057.295.168.424.111.128.326.192.646.192.297 0 .596-.054.896-.163.3-.11.581-.265.841-.468s.468-.44.624-.713l.145.075c-.17.297-.405.563-.702.798a3.62 3.62 0 01-.98.553 3.048 3.048 0 01-1.08.201z" fill="#3C4242"/><path d="M69.976 40.838c-.32 0-.548-.073-.685-.219a.764.764 0 01-.206-.545c0-.237.067-.52.2-.846.134-.327.31-.671.53-1.033a12.8 12.8 0 011.497-1.998c.26-.282.5-.508.719-.676.218-.168.391-.252.517-.252a.25.25 0 01.2.093.692.692 0 01.124.222.751.751 0 01.044.234c0 .133-.05.308-.15.524-.1.215-.242.455-.424.72a7.195 7.195 0 01-.646.802 8.95 8.95 0 01-.812.776c-.294.247-.603.46-.93.638-.045.134-.08.264-.106.39-.027.126-.04.247-.04.36 0 .194.041.337.122.432.082.093.205.14.368.14.2 0 .4-.058.596-.177.197-.12.383-.27.557-.45.175-.18.325-.367.451-.56l.167.059c-.297.42-.62.753-.97.998a1.91 1.91 0 01-1.123.368zm.078-1.812a6.19 6.19 0 00.757-.597 9.384 9.384 0 001.247-1.406c.164-.228.29-.432.38-.613.089-.18.133-.32.133-.42 0-.049-.009-.08-.027-.096-.019-.015-.036-.023-.05-.023-.06 0-.162.063-.307.19a6.421 6.421 0 00-.507.508c-.193.213-.39.456-.59.727-.2.272-.391.557-.574.855a7.28 7.28 0 00-.462.875z" fill="#3C4242"/><path d="M72.214 40.964c-.23 0-.425-.05-.584-.152a.511.511 0 01-.24-.464c0-.178.06-.37.178-.575.119-.205.282-.409.49-.61.209-.2.444-.383.708-.548.263-.166.541-.299.836-.398.293-.099.584-.148.874-.148.29 0 .53.05.723.152.193.102.29.237.29.405 0 .124-.05.208-.15.253a.987.987 0 01-.396.067c.014-.04.027-.083.039-.13a.54.54 0 00.017-.13.402.402 0 00-.122-.294c-.082-.08-.223-.122-.423-.122-.209 0-.42.049-.636.145a2.88 2.88 0 00-.623.386 3.64 3.64 0 00-.535.524 2.847 2.847 0 00-.368.557 1.13 1.13 0 00-.134.49c0 .193.1.29.301.29.17 0 .357-.053.557-.16.2-.106.407-.243.619-.409.21-.166.414-.338.606-.516.193-.178.365-.342.513-.49.029-.03.048-.045.055-.045.045.005.102.015.173.03.07.015.132.035.183.06.053.024.079.056.079.096 0 .045-.034.105-.1.182-.068.077-.142.165-.224.264a3.67 3.67 0 00-.222.3.525.525 0 00-.1.287c0 .074.03.147.089.219.06.072.156.107.29.107.2 0 .463-.098.79-.293.326-.195.657-.489.992-.88l.111.074a2.63 2.63 0 01-.601.705 3.027 3.027 0 01-.785.476 2.17 2.17 0 01-.82.17c-.274 0-.476-.054-.606-.164-.13-.109-.195-.227-.195-.356a.49.49 0 01.011-.1l.023-.115c-.32.287-.611.502-.875.646a1.681 1.681 0 01-.808.214z" fill="#3C4242"/><path d="M77.705 40.994c-.348 0-.625-.05-.83-.152a.989.989 0 01-.434-.375.89.89 0 01-.128-.445c0-.148.03-.263.089-.342a.578.578 0 01.217-.178c.085-.04.167-.07.245-.09a.599.599 0 00.162-.059c.222-.163.427-.334.612-.512a3.99 3.99 0 00.49-.565v-.089c0-.182.047-.313.14-.39a.457.457 0 01.295-.115.24.24 0 01.133.03c.03.02.045.042.045.067 0 .024-.01.064-.033.119a.553.553 0 00-.034.208c0 .164.048.34.144.53.097.191.193.392.29.602.096.21.144.43.144.657a1.026 1.026 0 01-.066.363c.26-.03.504-.107.735-.233.23-.126.453-.328.668-.605l.1.074a1.404 1.404 0 01-.635.62c-.282.141-.59.229-.925.263-.119.213-.306.37-.562.468-.255.1-.543.15-.862.15zm.023-.26c.089 0 .208-.02.356-.059a.544.544 0 00.346-.304 2.482 2.482 0 01-.83-.245 2.042 2.042 0 01-.54-.37c-.163.005-.245.09-.245.259 0 .178.08.342.24.494.158.15.383.226.673.226zm.757-.483a.99.99 0 00.033-.155c.008-.055.012-.12.012-.193 0-.233-.043-.464-.129-.695-.085-.23-.157-.447-.217-.65-.17.189-.351.368-.54.539a4.76 4.76 0 01-.54.427c.111.158.284.307.518.445.234.14.521.233.863.282z" fill="#3C4242"/><path d="M81.547 40.994c-.349 0-.625-.05-.83-.152a.989.989 0 01-.434-.375.89.89 0 01-.129-.445c0-.148.03-.263.09-.342a.578.578 0 01.217-.178c.085-.04.167-.07.245-.09a.599.599 0 00.161-.059 6.04 6.04 0 00.613-.512 3.99 3.99 0 00.49-.565v-.089c0-.182.046-.313.14-.39a.457.457 0 01.294-.115c.06 0 .104.01.134.03.03.02.045.042.045.067a.378.378 0 01-.033.119.553.553 0 00-.034.208c0 .164.048.34.144.53.097.191.193.392.29.602.096.21.144.43.144.657a1.026 1.026 0 01-.067.363 2 2 0 00.736-.233c.23-.126.453-.328.668-.605l.1.074a1.404 1.404 0 01-.635.62c-.282.141-.59.229-.925.263-.119.213-.306.37-.562.468-.254.1-.542.15-.862.15zm.022-.26c.09 0 .209-.02.357-.059a.544.544 0 00.346-.304 2.482 2.482 0 01-.83-.245 2.042 2.042 0 01-.54-.37c-.164.005-.245.09-.245.259 0 .178.08.342.24.494.159.15.383.226.672.226zm.758-.483a.99.99 0 00.033-.155 1.987 1.987 0 00-.117-.887 10.76 10.76 0 01-.217-.65c-.17.188-.351.367-.54.538a4.76 4.76 0 01-.54.427c.111.158.284.307.517.445.235.14.523.233.864.282z" fill="#3C4242"/><path d="M84.7 42.695c-.186 0-.349-.033-.49-.1-.141-.067-.212-.164-.212-.293 0-.159.06-.3.178-.424.118-.123.278-.237.48-.342.2-.103.43-.202.69-.297.26-.093.53-.188.813-.282.103-.182.21-.387.317-.612.107-.225.21-.474.306-.746a4.499 4.499 0 01-.763.665 1.5 1.5 0 01-.863.278c-.141 0-.28-.021-.418-.063a.803.803 0 01-.34-.197.463.463 0 01-.133-.342c0-.138.035-.3.106-.482a3.45 3.45 0 01.262-.535c.104-.172.211-.316.323-.43.113-.115.209-.171.29-.171a1.307 1.307 0 01.384.085c.07.028.106.056.106.085a1.802 1.802 0 00-.223.275 4.158 4.158 0 00-.434.825 1.035 1.035 0 00-.078.356c0 .09.03.16.09.215.058.055.163.082.31.082.142 0 .3-.046.474-.138a3.1 3.1 0 00.524-.353c.174-.143.336-.297.485-.46a2.815 2.815 0 00.111-.34.694.694 0 01.161-.242c.086-.091.222-.137.407-.137l.111.003a.784.784 0 01.122.019c0 .079-.035.227-.106.441-.07.216-.171.468-.3.754-.13.287-.285.582-.463.883.348-.089.69-.236 1.024-.441a2.43 2.43 0 00.813-.82l.145.074c-.112.237-.28.444-.508.62-.226.176-.48.326-.762.453a7.426 7.426 0 01-.836.316 7.905 7.905 0 01-.63.89 3.451 3.451 0 01-.712.673c-.247.17-.501.255-.761.255zm-.056-.238c.111 0 .299-.098.562-.294.263-.196.544-.538.841-1.028-.304.109-.587.216-.846.323-.26.106-.468.221-.624.346-.156.123-.233.267-.233.43 0 .04.022.087.066.142.045.054.122.08.234.08zm4.355-1.767a.596.596 0 01-.25-.048c-.072-.033-.107-.083-.107-.153 0-.054.033-.105.1-.151a.794.794 0 01.25-.112c.1-.027.198-.04.295-.04a.5.5 0 01.212.036c.051.025.077.072.077.142 0 .05-.027.099-.084.148a.724.724 0 01-.217.126.752.752 0 01-.276.052z" fill="#3C4242"/></svg>