<svg width="44" height="44" fill="none" xmlns="http://www.w3.org/2000/svg"><rect width="44" height="44" rx="8" fill="#F6F6F6"/><path d="M14.5 15.333h.505c.85 0 1.565.64 1.657 1.486l.676 6.195a1.667 1.667 0 001.657 1.486h7.21c.762 0 1.427-.517 1.615-1.255l1.15-4.51a1.667 1.667 0 00-1.615-2.078H17.5m.02 10.864h.626m-.625.625h.625m8.541-.625h.625m-.625.625h.625m-8.645-.313a.833.833 0 11-1.667 0 .833.833 0 011.667 0zm9.166 0a.833.833 0 11-1.666 0 .833.833 0 011.666 0z" stroke="#807D7E" stroke-width="1.5" stroke-linecap="round"/></svg>